<?xml version="1.0" standalone="no"?>
<svg viewBox="0 0 200 200" xmlns="http://www.w3.org/2000/svg">
  <path fill="#FEEEB2" d="M35.4,-49.2C49.1,-38.7,65.6,-32.7,69.8,-22.1C73.9,-11.6,65.8,3.6,60,18.9C54.2,34.2,50.8,49.8,41.2,62.5C31.6,75.2,15.8,85.1,-0.5,85.8C-16.7,86.4,-33.5,77.8,-44.8,65.6C-56.1,53.4,-61.9,37.7,-62.6,23.2C-63.4,8.7,-59,-4.5,-56.8,-20.6C-54.5,-36.6,-54.2,-55.5,-45.1,-67.5C-36,-79.4,-18,-84.5,-3.6,-79.6C10.8,-74.7,21.7,-59.7,35.4,-49.2Z" transform="translate(100 100)" />
</svg>
