<?xml version="1.0" standalone="no"?>
<svg viewBox="0 0 200 200" xmlns="http://www.w3.org/2000/svg">
  <path fill="#FEEEB2" d="M35.4,-64.2C47.1,-54.6,58.6,-47.6,67.8,-37.3C77,-27,83.9,-13.5,82.5,-0.8C81.1,11.9,71.4,23.7,63.9,37C56.4,50.2,51.1,64.8,40.8,73.5C30.6,82.1,15.3,84.8,1,83C-13.3,81.3,-26.5,75.1,-38,67.1C-49.5,59.2,-59.3,49.6,-64.1,38.1C-68.8,26.6,-68.4,13.3,-70.1,-0.9C-71.7,-15.2,-75.3,-30.4,-70.6,-42C-66,-53.6,-53.1,-61.6,-39.9,-70.3C-26.8,-79,-13.4,-88.4,-0.8,-87.1C11.9,-85.8,23.8,-73.8,35.4,-64.2Z" transform="translate(100 100)" />
</svg>
