<svg id="visual" viewBox="0 0 900 600" width="900" height="600" xmlns="http://www.w3.org/2000/svg" xmlns:xlink="http://www.w3.org/1999/xlink" version="1.1"><path d="M0 54L21.5 67.3C43 80.7 86 107.3 128.8 119C171.7 130.7 214.3 127.3 257.2 119.2C300 111 343 98 385.8 100.8C428.7 103.7 471.3 122.3 514.2 113.3C557 104.3 600 67.7 642.8 68.5C685.7 69.3 728.3 107.7 771.2 112.2C814 116.7 857 87.3 878.5 72.7L900 58L900 0L878.5 0C857 0 814 0 771.2 0C728.3 0 685.7 0 642.8 0C600 0 557 0 514.2 0C471.3 0 428.7 0 385.8 0C343 0 300 0 257.2 0C214.3 0 171.7 0 128.8 0C86 0 43 0 21.5 0L0 0Z" fill="#F3D188" stroke-linecap="round" stroke-linejoin="miter"></path></svg>