<svg id="visual" viewBox="0 0 900 600" width="900" height="600" xmlns="http://www.w3.org/2000/svg" xmlns:xlink="http://www.w3.org/1999/xlink" version="1.1"><path d="M0 220L30 215C60 210 120 200 180 200.5C240 201 300 212 360 203C420 194 480 165 540 161.7C600 158.3 660 180.7 720 180.2C780 179.7 840 156.3 870 144.7L900 133L900 0L870 0C840 0 780 0 720 0C660 0 600 0 540 0C480 0 420 0 360 0C300 0 240 0 180 0C120 0 60 0 30 0L0 0Z" fill="#F3D188" stroke-linecap="round" stroke-linejoin="miter"></path></svg>