<?xml version="1.0" standalone="no"?><svg xmlns="http://www.w3.org/2000/svg" viewBox="0 0 1440 320"><path fill="#F3D188" fill-opacity="1" d="M0,160L21.8,170.7C43.6,181,87,203,131,224C174.5,245,218,267,262,282.7C305.5,299,349,309,393,304C436.4,299,480,277,524,256C567.3,235,611,213,655,186.7C698.2,160,742,128,785,133.3C829.1,139,873,181,916,218.7C960,256,1004,288,1047,282.7C1090.9,277,1135,235,1178,213.3C1221.8,192,1265,192,1309,202.7C1352.7,213,1396,235,1418,245.3L1440,256L1440,0L1418.2,0C1396.4,0,1353,0,1309,0C1265.5,0,1222,0,1178,0C1134.5,0,1091,0,1047,0C1003.6,0,960,0,916,0C872.7,0,829,0,785,0C741.8,0,698,0,655,0C610.9,0,567,0,524,0C480,0,436,0,393,0C349.1,0,305,0,262,0C218.2,0,175,0,131,0C87.3,0,44,0,22,0L0,0Z"></path></svg>